<?xml version="1.0" encoding="UTF-8"?>
<svg xmlns="http://www.w3.org/2000/svg" xmlns:xlink="http://www.w3.org/1999/xlink" viewBox="0 0 24 24" width="24px" height="24px">
<g id="surface535708">
<path style=" stroke:none;fill-rule:nonzero;fill:rgb(100%,100%,100%);fill-opacity:1;" d="M 11.425781 2 C 11.179688 2 10.96875 2.175781 10.929688 2.417969 L 10.644531 4.121094 C 10.160156 4.207031 9.6875 4.335938 9.234375 4.503906 L 8.132812 3.167969 C 7.980469 2.980469 7.710938 2.929688 7.496094 3.050781 L 6.5 3.628906 C 6.289062 3.75 6.195312 4.007812 6.28125 4.234375 L 6.886719 5.851562 C 6.511719 6.167969 6.167969 6.511719 5.851562 6.886719 L 4.234375 6.28125 C 4.007812 6.195312 3.75 6.289062 3.628906 6.5 L 3.054688 7.496094 C 2.929688 7.710938 2.980469 7.980469 3.167969 8.132812 L 4.503906 9.234375 C 4.335938 9.6875 4.207031 10.160156 4.125 10.644531 L 2.417969 10.929688 C 2.175781 10.96875 2 11.179688 2 11.421875 L 2 12.574219 C 2 12.820312 2.175781 13.03125 2.417969 13.070312 L 4.125 13.355469 C 4.207031 13.839844 4.335938 14.3125 4.503906 14.765625 L 3.167969 15.867188 C 2.980469 16.019531 2.929688 16.289062 3.054688 16.503906 L 3.628906 17.5 C 3.75 17.710938 4.007812 17.804688 4.234375 17.71875 L 5.851562 17.113281 C 6.167969 17.488281 6.511719 17.832031 6.886719 18.148438 L 6.28125 19.765625 C 6.195312 19.992188 6.289062 20.25 6.5 20.371094 L 7.496094 20.949219 C 7.710938 21.070312 7.980469 21.019531 8.132812 20.832031 L 9.234375 19.496094 C 9.6875 19.664062 10.160156 19.792969 10.644531 19.878906 L 10.929688 21.582031 C 10.96875 21.824219 11.179688 22 11.421875 22 L 12.574219 22 C 12.820312 22 13.03125 21.824219 13.070312 21.582031 L 13.355469 19.878906 C 13.839844 19.792969 14.3125 19.664062 14.765625 19.496094 L 15.867188 20.832031 C 16.019531 21.019531 16.289062 21.070312 16.503906 20.949219 L 17.5 20.371094 C 17.710938 20.25 17.804688 19.992188 17.71875 19.765625 L 17.113281 18.148438 C 17.488281 17.832031 17.832031 17.488281 18.148438 17.113281 L 19.765625 17.71875 C 19.992188 17.804688 20.25 17.710938 20.371094 17.5 L 20.949219 16.503906 C 21.070312 16.289062 21.019531 16.019531 20.832031 15.867188 L 19.496094 14.765625 C 19.664062 14.3125 19.792969 13.839844 19.878906 13.355469 L 21.582031 13.070312 C 21.824219 13.03125 22 12.820312 22 12.578125 L 22 11.425781 C 22 11.179688 21.824219 10.96875 21.582031 10.929688 L 19.878906 10.644531 C 19.792969 10.160156 19.664062 9.6875 19.496094 9.234375 L 20.832031 8.132812 C 21.019531 7.980469 21.070312 7.710938 20.949219 7.496094 L 20.371094 6.5 C 20.25 6.289062 19.992188 6.195312 19.765625 6.28125 L 18.148438 6.886719 C 17.832031 6.511719 17.488281 6.167969 17.113281 5.851562 L 17.71875 4.234375 C 17.804688 4.007812 17.710938 3.75 17.5 3.628906 L 16.503906 3.054688 C 16.289062 2.929688 16.019531 2.980469 15.867188 3.167969 L 14.765625 4.503906 C 14.3125 4.335938 13.839844 4.207031 13.355469 4.125 L 13.070312 2.417969 C 13.03125 2.175781 12.820312 2 12.578125 2 Z M 11 6.089844 L 11 9.175781 C 9.800781 9.597656 9 10.730469 9 12 C 9 12.183594 9.015625 12.367188 9.050781 12.550781 L 6.378906 14.089844 C 6.136719 13.4375 6 12.738281 6 12 C 6 9.015625 8.15625 6.5625 11 6.089844 Z M 13 6.089844 C 15.84375 6.5625 18 9.015625 18 12 C 18 12.738281 17.859375 13.441406 17.621094 14.089844 L 14.945312 12.546875 C 14.980469 12.367188 15 12.183594 15 12 C 15 10.730469 14.195312 9.597656 13 9.175781 Z M 13.949219 14.277344 L 16.628906 15.828125 C 15.53125 17.15625 13.867188 18 12 18 C 10.132812 18 8.46875 17.15625 7.371094 15.828125 L 10.050781 14.277344 C 10.59375 14.742188 11.285156 15 12 15 C 12.714844 15 13.40625 14.742188 13.945312 14.277344 Z M 13.949219 14.277344 "/>
</g>
</svg>
